<?xml version="1.0" encoding="UTF-8" standalone="no"?>
<!DOCTYPE svg PUBLIC "-//W3C//DTD SVG 1.1//EN"
 "http://www.w3.org/Graphics/SVG/1.1/DTD/svg11.dtd">
<!-- Generated by graphviz version 12.2.1 (20241206.2353)
 -->
<!-- Title: graph_name Pages: 1 -->
<svg width="420pt" height="159pt"
 viewBox="0.00 0.00 420.02 159.11" xmlns="http://www.w3.org/2000/svg" xmlns:xlink="http://www.w3.org/1999/xlink">
<g id="graph0" class="graph" transform="scale(1 1) rotate(0) translate(4 155.11)">
<title>graph_name</title>
<polygon fill="#f2f2f2" stroke="none" points="-4,4 -4,-155.11 416.02,-155.11 416.02,4 -4,4"/>
<!-- 1 -->
<g id="node1" class="node">
<title>1</title>
<ellipse fill="#ffffff" stroke="#000000" cx="114.69" cy="-117.88" rx="114.69" ry="33.23"/>
<text text-anchor="middle" x="114.69" y="-124.08" font-family="Meiryo UI" font-size="14.00">START</text>
<text text-anchor="middle" x="114.69" y="-104.58" font-family="Meiryo UI" font-size="14.00">int func(int a, int b)</text>
</g>
<!-- 2 -->
<g id="node2" class="node">
<title>2</title>
<polygon fill="#ffffff" stroke="#000000" points="175.37,-76.64 57.06,-76.64 54,-73.59 54,-49.14 172.32,-49.14 175.37,-52.2 175.37,-76.64"/>
<polyline fill="none" stroke="#000000" points="172.32,-73.59 54,-73.59"/>
<polyline fill="none" stroke="#000000" points="172.32,-73.59 172.32,-49.14"/>
<polyline fill="none" stroke="#000000" points="172.32,-73.59 175.37,-76.64"/>
<text text-anchor="middle" x="114.69" y="-59.34" font-family="Meiryo UI" font-size="14.00">return (a+b)</text>
</g>
<!-- 1&#45;&gt;2 -->
<g id="edge1" class="edge">
<title>1&#45;&gt;2</title>
<path fill="none" stroke="#000000" d="M114.69,-84.23C114.69,-84.07 114.69,-83.91 114.69,-83.75"/>
<polygon fill="#000000" stroke="#000000" points="118.19,-88.42 114.69,-78.42 111.19,-88.42 118.19,-88.42"/>
</g>
<!-- 13 -->
<g id="node4" class="node">
<title>13</title>
<polygon fill="#bbccff" stroke="none" points="412.02,-131.63 265.35,-131.63 265.35,-104.13 412.02,-104.13 412.02,-131.63"/>
<text text-anchor="start" x="273.35" y="-114.33" font-family="Meiryo UI" font-size="14.00">a와 b의 합 구하기</text>
</g>
<!-- 1&#45;&gt;13 -->
<g id="edge3" class="edge">
<title>1&#45;&gt;13</title>
<path fill="none" stroke="#aaaaff" d="M229.75,-117.88C241.66,-117.88 253.58,-117.88 265.49,-117.88"/>
</g>
<!-- 3 -->
<g id="node3" class="node">
<title>3</title>
<ellipse fill="#ffffff" stroke="#000000" cx="114.69" cy="-20.57" rx="72" ry="20.57"/>
<text text-anchor="middle" x="114.69" y="-17.02" font-family="Meiryo UI" font-size="14.00">END</text>
</g>
<!-- 2&#45;&gt;3 -->
<g id="edge2" class="edge">
<title>2&#45;&gt;3</title>
<path fill="none" stroke="#000000" d="M114.69,-48.69C114.69,-48.55 114.69,-48.4 114.69,-48.26"/>
<polygon fill="#000000" stroke="#000000" points="118.19,-53.04 114.69,-43.04 111.19,-53.04 118.19,-53.04"/>
</g>
</g>
</svg>
