<?xml version="1.0" encoding="UTF-8" standalone="no"?>
<!DOCTYPE svg PUBLIC "-//W3C//DTD SVG 1.1//EN"
 "http://www.w3.org/Graphics/SVG/1.1/DTD/svg11.dtd">
<!-- Generated by graphviz version 12.2.1 (20241206.2353)
 -->
<!-- Title: graph_name Pages: 1 -->
<svg width="303pt" height="301pt"
 viewBox="0.00 0.00 303.20 301.11" xmlns="http://www.w3.org/2000/svg" xmlns:xlink="http://www.w3.org/1999/xlink">
<g id="graph0" class="graph" transform="scale(1 1) rotate(0) translate(4 297.11)">
<title>graph_name</title>
<polygon fill="#f2f2f2" stroke="none" points="-4,4 -4,-297.11 299.2,-297.11 299.2,4 -4,4"/>
<!-- 4 -->
<g id="node1" class="node">
<title>4</title>
<ellipse fill="#ffffff" stroke="#000000" cx="147.6" cy="-259.88" rx="77.91" ry="33.23"/>
<text text-anchor="middle" x="147.6" y="-266.08" font-family="Meiryo UI" font-size="14.00">START</text>
<text text-anchor="middle" x="147.6" y="-246.58" font-family="Meiryo UI" font-size="14.00">void main()</text>
</g>
<!-- 5 -->
<g id="node2" class="node">
<title>5</title>
<polygon fill="#ffffaa" stroke="#000000" points="199.03,-218.64 96.17,-218.64 96.17,-191.14 199.03,-191.14 199.03,-218.64"/>
<text text-anchor="middle" x="147.6" y="-201.34" font-family="Meiryo UI" font-size="14.00">int a, b</text>
</g>
<!-- 4&#45;&gt;5 -->
<g id="edge1" class="edge">
<title>4&#45;&gt;5</title>
<path fill="none" stroke="#000000" d="M147.6,-226.23C147.6,-226.07 147.6,-225.91 147.6,-225.75"/>
<polygon fill="#000000" stroke="#000000" points="151.1,-230.42 147.6,-220.42 144.1,-230.42 151.1,-230.42"/>
</g>
<!-- 6 -->
<g id="node3" class="node">
<title>6</title>
<polygon fill="#ffffff" stroke="#000000" points="221.66,-183.14 76.6,-183.14 73.54,-180.09 73.54,-155.64 218.6,-155.64 221.66,-158.7 221.66,-183.14"/>
<polyline fill="none" stroke="#000000" points="218.6,-180.09 73.54,-180.09"/>
<polyline fill="none" stroke="#000000" points="218.6,-180.09 218.6,-155.64"/>
<polyline fill="none" stroke="#000000" points="218.6,-180.09 221.66,-183.14"/>
<text text-anchor="middle" x="147.6" y="-165.84" font-family="Meiryo UI" font-size="14.00">scanf(&quot;%d&quot;, a&amp;)</text>
</g>
<!-- 5&#45;&gt;6 -->
<g id="edge2" class="edge">
<title>5&#45;&gt;6</title>
<path fill="none" stroke="#000000" d="M147.6,-190.65C147.6,-190.51 147.6,-190.36 147.6,-190.21"/>
<polygon fill="#000000" stroke="#000000" points="151.1,-195.05 147.6,-185.05 144.1,-195.05 151.1,-195.05"/>
</g>
<!-- 7 -->
<g id="node4" class="node">
<title>7</title>
<polygon fill="#ffffff" stroke="#000000" points="221.66,-147.64 76.6,-147.64 73.54,-144.59 73.54,-120.14 218.6,-120.14 221.66,-123.2 221.66,-147.64"/>
<polyline fill="none" stroke="#000000" points="218.6,-144.59 73.54,-144.59"/>
<polyline fill="none" stroke="#000000" points="218.6,-144.59 218.6,-120.14"/>
<polyline fill="none" stroke="#000000" points="218.6,-144.59 221.66,-147.64"/>
<text text-anchor="middle" x="147.6" y="-130.34" font-family="Meiryo UI" font-size="14.00">scanf(&quot;%d&quot;, &amp;b)</text>
</g>
<!-- 6&#45;&gt;7 -->
<g id="edge3" class="edge">
<title>6&#45;&gt;7</title>
<path fill="none" stroke="#000000" d="M147.6,-155.15C147.6,-155.01 147.6,-154.86 147.6,-154.71"/>
<polygon fill="#000000" stroke="#000000" points="151.1,-159.55 147.6,-149.55 144.1,-159.55 151.1,-159.55"/>
</g>
<!-- 8 -->
<g id="node5" class="node">
<title>8</title>
<polygon fill="#ffffff" stroke="#000000" points="295.2,-112.14 3.06,-112.14 0,-109.09 0,-84.64 292.14,-84.64 295.2,-87.7 295.2,-112.14"/>
<polyline fill="none" stroke="#000000" points="292.14,-109.09 0,-109.09"/>
<polyline fill="none" stroke="#000000" points="292.14,-109.09 292.14,-84.64"/>
<polyline fill="none" stroke="#000000" points="292.14,-109.09 295.2,-112.14"/>
<text text-anchor="middle" x="147.6" y="-94.84" font-family="Meiryo UI" font-size="14.00">printf(&quot;%d&quot;, func(a, b) + func(a, b))</text>
</g>
<!-- 7&#45;&gt;8 -->
<g id="edge4" class="edge">
<title>7&#45;&gt;8</title>
<path fill="none" stroke="#000000" d="M147.6,-119.65C147.6,-119.51 147.6,-119.36 147.6,-119.21"/>
<polygon fill="#000000" stroke="#000000" points="151.1,-124.05 147.6,-114.05 144.1,-124.05 151.1,-124.05"/>
</g>
<!-- 9 -->
<g id="node6" class="node">
<title>9</title>
<polygon fill="#ffffff" stroke="#000000" points="199.03,-76.64 96.17,-76.64 96.17,-49.14 199.03,-49.14 199.03,-76.64"/>
<text text-anchor="middle" x="147.6" y="-59.34" font-family="Meiryo UI" font-size="14.00">return </text>
</g>
<!-- 8&#45;&gt;9 -->
<g id="edge5" class="edge">
<title>8&#45;&gt;9</title>
<path fill="none" stroke="#000000" d="M147.6,-84.15C147.6,-84.01 147.6,-83.86 147.6,-83.71"/>
<polygon fill="#000000" stroke="#000000" points="151.1,-88.55 147.6,-78.55 144.1,-88.55 151.1,-88.55"/>
</g>
<!-- 10 -->
<g id="node7" class="node">
<title>10</title>
<ellipse fill="#ffffff" stroke="#000000" cx="147.6" cy="-20.57" rx="72" ry="20.57"/>
<text text-anchor="middle" x="147.6" y="-17.02" font-family="Meiryo UI" font-size="14.00">END</text>
</g>
<!-- 9&#45;&gt;10 -->
<g id="edge6" class="edge">
<title>9&#45;&gt;10</title>
<path fill="none" stroke="#000000" d="M147.6,-48.69C147.6,-48.55 147.6,-48.4 147.6,-48.26"/>
<polygon fill="#000000" stroke="#000000" points="151.1,-53.04 147.6,-43.04 144.1,-53.04 151.1,-53.04"/>
</g>
</g>
</svg>
